<svg xmlns="http://www.w3.org/2000/svg" viewBox="0 0 300 300"><rect width="300" height="300" fill="#dfe7f1"/><g transform="rotate(-4 150 150)"><rect x="14" y="18" width="272" height="264" rx="10" fill="#fffdf7" stroke="#e5e0d2"/><line x1="14" x2="286" y1="58" y2="58" stroke="#e8eef6"/><line x1="14" x2="286" y1="80" y2="80" stroke="#e8eef6"/><line x1="14" x2="286" y1="102" y2="102" stroke="#e8eef6"/><line x1="14" x2="286" y1="124" y2="124" stroke="#e8eef6"/><line x1="14" x2="286" y1="146" y2="146" stroke="#e8eef6"/><line x1="14" x2="286" y1="168" y2="168" stroke="#e8eef6"/><line x1="14" x2="286" y1="190" y2="190" stroke="#e8eef6"/><line x1="14" x2="286" y1="212" y2="212" stroke="#e8eef6"/><line x1="14" x2="286" y1="234" y2="234" stroke="#e8eef6"/><line x1="14" x2="286" y1="256" y2="256" stroke="#e8eef6"/><line x1="14" x2="286" y1="278" y2="278" stroke="#e8eef6"/><text x="28" y="44" font-family="sans-serif" font-size="18" font-weight="700" fill="#1d4ed8">미적분 · 극한</text><rect x="28" y="70" width="120" height="7" rx="3.5" fill="#1d4ed8" opacity="0.35"/><rect x="28" y="92" width="173" height="7" rx="3.5" fill="#1d4ed8" opacity="0.5"/><rect x="28" y="114" width="226" height="7" rx="3.5" fill="#1d4ed8" opacity="0.6499999999999999"/><rect x="28" y="136" width="169" height="7" rx="3.5" fill="#1d4ed8" opacity="0.35"/><rect x="28" y="158" width="222" height="7" rx="3.5" fill="#1d4ed8" opacity="0.5"/><rect x="28" y="180" width="165" height="7" rx="3.5" fill="#1d4ed8" opacity="0.6499999999999999"/><rect x="28" y="202" width="218" height="7" rx="3.5" fill="#1d4ed8" opacity="0.35"/><rect x="28" y="224" width="161" height="7" rx="3.5" fill="#1d4ed8" opacity="0.5"/><rect x="28" y="246" width="214" height="7" rx="3.5" fill="#1d4ed8" opacity="0.6499999999999999"/><circle cx="240" cy="230" r="22" fill="none" stroke="#ef4444" stroke-width="3" opacity=".7"/><path d="M228 230l8 8 16-18" stroke="#ef4444" stroke-width="3" fill="none" opacity=".7"/></g></svg>